<svg xmlns="http://www.w3.org/2000/svg" width="14.481" height="14.481" viewBox="0 0 14.481 14.481">
  <defs>
    <style>
      .cls-1 {
        fill: #fff;
      }
    </style>
  </defs>
  <path id="share_02" class="cls-1" d="M11.652,8.824A2.825,2.825,0,0,0,9.436,9.9L5.562,7.967a2.831,2.831,0,0,0,0-1.454L9.436,4.583a2.816,2.816,0,1,0-.512-1.009L5.057,5.5a2.828,2.828,0,1,0,0,3.479l3.867,1.927a2.828,2.828,0,1,0,2.728-2.083Zm0-7.693a1.7,1.7,0,1,1-1.7,1.7A1.7,1.7,0,0,1,11.652,1.131ZM2.828,8.937a1.7,1.7,0,1,1,1.7-1.7A1.7,1.7,0,0,1,2.828,8.937Zm8.824,4.412a1.7,1.7,0,1,1,1.7-1.7A1.7,1.7,0,0,1,11.652,13.349Zm0,0"/>
</svg>
