<svg xmlns="http://www.w3.org/2000/svg" width="18.697" height="17.282" viewBox="0 0 18.697 17.282">
  <defs>
    <style>
      .cls-1 {
        fill: #1f6cbc;
      }
    </style>
  </defs>
  <g id="upload_1_" data-name="upload (1)" transform="translate(0 -18.4)">
    <g id="Grupo_36" data-name="Grupo 36" transform="translate(0 18.4)">
      <path id="Caminho_2109" data-name="Caminho 2109" class="cls-1" d="M15.206,22.914a5.416,5.416,0,0,0-10.035-1.8,3.1,3.1,0,0,0-.569-.054,2.968,2.968,0,0,0-2.964,2.964,3.24,3.24,0,0,0,.062.615A4.125,4.125,0,0,0,0,27.966a4.41,4.41,0,0,0,1.119,2.918,3.993,3.993,0,0,0,2.768,1.392H7.224a.519.519,0,1,0,0-1.038H3.933a3.274,3.274,0,0,1-2.9-3.276,3.082,3.082,0,0,1,1.526-2.653.523.523,0,0,0,.227-.631,1.883,1.883,0,0,1-.115-.661A1.93,1.93,0,0,1,4.6,22.091a1.893,1.893,0,0,1,.657.115.521.521,0,0,0,.65-.265,4.377,4.377,0,0,1,8.316,1.442.518.518,0,0,0,.431.461,3.742,3.742,0,0,1-.354,7.389H11.469a.519.519,0,0,0,0,1.038H14.36a4.6,4.6,0,0,0,3.083-1.522,4.785,4.785,0,0,0-2.238-7.835Z" transform="translate(0 -18.4)"/>
      <path id="Caminho_2110" data-name="Caminho 2110" class="cls-1" d="M164.606,189.037a.517.517,0,0,0,0-.734l-2.749-2.749a.525.525,0,0,0-.365-.154.509.509,0,0,0-.365.154l-2.749,2.749a.521.521,0,0,0,.365.888.506.506,0,0,0,.365-.154l1.865-1.865v8.57a.519.519,0,0,0,1.038,0v-8.57l1.865,1.865A.513.513,0,0,0,164.606,189.037Z" transform="translate(-152.142 -178.979)"/>
    </g>
  </g>
</svg>
