<svg xmlns="http://www.w3.org/2000/svg" width="16.164" height="22.666" viewBox="0 0 16.164 22.666">
  <defs>
    <style>
      .cls-1 {
        fill: #fff;
      }
    </style>
  </defs>
  <g id="lab" transform="translate(0.001 0)">
    <path id="Caminho_2053" data-name="Caminho 2053" class="cls-1" d="M16,19.637,11.205,7.955a5.331,5.331,0,0,1-.4-2.032V2.834a1.237,1.237,0,0,1,.365-.88A1.508,1.508,0,0,0,11.614.88V.443A.443.443,0,0,0,11.171,0H4.99a.443.443,0,0,0-.443.443V.88a1.508,1.508,0,0,0,.445,1.074,1.237,1.237,0,0,1,.365.881V5.922a5.328,5.328,0,0,1-.4,2.032l-1.317,3.21,0,0L.163,19.637a2.2,2.2,0,0,0,2.031,3.028H13.967A2.2,2.2,0,0,0,16,19.637ZM5.776,8.291a6.209,6.209,0,0,0,.467-2.368V2.834a2.116,2.116,0,0,0-.624-1.506A.629.629,0,0,1,5.433.885h5.3a.629.629,0,0,1-.186.442,2.117,2.117,0,0,0-.624,1.506V5.922a6.212,6.212,0,0,0,.467,2.368L11.455,10.9H4.707ZM15.055,21.2a1.291,1.291,0,0,1-1.088.58H2.194a1.312,1.312,0,0,1-1.3-1.5h.729a.443.443,0,1,0,0-.885H1.22l.508-1.24h.747a.443.443,0,0,0,0-.885H2.092l.508-1.24h.768a.443.443,0,1,0,0-.885h-.4l.509-1.24H4.26a.443.443,0,0,0,0-.885H3.835l.509-1.24h7.474l3.361,8.192A1.291,1.291,0,0,1,15.055,21.2Zm0,0"/>
    <path id="Caminho_2054" data-name="Caminho 2054" class="cls-1" d="M293.626,438.274a.443.443,0,1,0-.819.335l0,.006a.443.443,0,1,0,.819-.335Zm0,0" transform="translate(-279.814 -418.61)"/>
    <path id="Caminho_2055" data-name="Caminho 2055" class="cls-1" d="M245.27,320.4l-1.585-3.864a.443.443,0,1,0-.819.336l1.585,3.864a.443.443,0,1,0,.819-.336Zm0,0" transform="translate(-232.084 -302.264)"/>
  </g>
</svg>
