<svg xmlns="http://www.w3.org/2000/svg" width="26.026" height="26.391" viewBox="0 0 26.026 26.391">
  <defs>
    <style>
      .cls-1 {
        fill: #fff;
      }
    </style>
  </defs>
  <g id="Animais" transform="translate(-92.896 -586.19)">
    <g id="horse" transform="translate(92.666 586.19)">
      <path id="Caminho_2056" data-name="Caminho 2056" class="cls-1" d="M6.112,4.933A.588.588,0,1,1,6.7,4.346.588.588,0,0,1,6.112,4.933Zm0-.789a.2.2,0,0,0-.2.2c0,.222.4.222.4,0A.2.2,0,0,0,6.112,4.144Z" transform="translate(-1.118 -0.794)"/>
      <path id="Caminho_2057" data-name="Caminho 2057" class="cls-1" d="M2.23,7.207c-.879,0-1.8-1.3-1.843-1.364a.832.832,0,0,1-.134-.674A1.943,1.943,0,0,1,1.295,4.056,17.168,17.168,0,0,0,4.139,1.538a3.255,3.255,0,0,1,3.6-.667.394.394,0,0,1-.3.73,2.481,2.481,0,0,0-2.718.468A18.16,18.16,0,0,1,1.689,4.74c-.583.334-.658.559-.667.6.35.536.971,1.123,1.218,1.076a2.193,2.193,0,0,0,.59-.271,2.786,2.786,0,0,1,1.491-.484A3.3,3.3,0,0,0,6.8,4.887a.394.394,0,0,1,.64.461C6.608,6.5,4.525,6.454,4.29,6.45a2.042,2.042,0,0,0-1.072.381,2.655,2.655,0,0,1-.849.364A.827.827,0,0,1,2.23,7.207Z" transform="translate(0 -0.128)"/>
      <path id="Caminho_2058" data-name="Caminho 2058" class="cls-1" d="M9.7,3.753a.394.394,0,0,1-.218-.723,3.292,3.292,0,0,0,1.336-1.917,1.191,1.191,0,0,0,.021-.289,3.432,3.432,0,0,0-1.359.953,3.1,3.1,0,0,1-.264.247.394.394,0,0,1-.472-.632,2.247,2.247,0,0,0,.179-.173A3.39,3.39,0,0,1,11.1,0a.393.393,0,0,1,.323.168,1.417,1.417,0,0,1,.164,1.091A4.1,4.1,0,0,1,9.914,3.687.4.4,0,0,1,9.7,3.753Z" transform="translate(-1.765)"/>
      <path id="Caminho_2059" data-name="Caminho 2059" class="cls-1" d="M23.128,27.045H21.534a.394.394,0,0,1-.394-.422c0-.035.248-3.525.218-4.525a3.887,3.887,0,0,0-.585-2.5l-.17-.181c-.7-.735-1.867-1.964-1.746-5.1a.371.371,0,0,1,.41-.379.4.4,0,0,1,.379.41c-.109,2.806.877,3.842,1.529,4.529l.181.193a4.475,4.475,0,0,1,.79,3c.024.836-.126,3.207-.192,4.182h.779c-.02-.744-.124-2.4-.279-3.619a8.933,8.933,0,0,1,.689-4.529l.241-.512a11.973,11.973,0,0,0,1.258-3.813,4.034,4.034,0,0,0-1.771-4.059c-1.038-.719-2.833-.411-4.275-.163-.359.062-.7.12-1.014.162a6.286,6.286,0,0,1-4-.6,6.22,6.22,0,0,1-1.99-2.676l-.173-.587a12.05,12.05,0,0,0-.748-2.152.394.394,0,1,1,.656-.437,10.739,10.739,0,0,1,.849,2.371l.17.58a5.57,5.57,0,0,0,1.7,2.263,5.618,5.618,0,0,0,3.437.46c.3-.04.636-.1.984-.156,1.584-.272,3.554-.61,4.856.292a4.784,4.784,0,0,1,2.105,4.809,12.787,12.787,0,0,1-1.329,4.05l-.237.5a8.088,8.088,0,0,0-.623,4.1,36.845,36.845,0,0,1,.282,4.15A.393.393,0,0,1,23.128,27.045Z" transform="translate(-2.192 -0.654)"/>
      <path id="Caminho_2060" data-name="Caminho 2060" class="cls-1" d="M12.629,29.992H10.977a.394.394,0,0,1-.391-.446c0-.031.4-3.113.4-4.169a10.775,10.775,0,0,0-.97-3.507,12.119,12.119,0,0,1-.685-4.462.395.395,0,1,1,.787.055,11.569,11.569,0,0,0,.627,4.1,11.823,11.823,0,0,1,1.031,3.809c0,.867-.241,2.915-.353,3.826h.811c0-.311.006-.725.01-1.19.017-1.625.037-3.848-.006-4.486a23.131,23.131,0,0,1,.456-3.693c.084-.5.16-.949.2-1.263a.406.406,0,0,1,.444-.337.394.394,0,0,1,.337.444c-.045.32-.121.776-.208,1.287a23.942,23.942,0,0,0-.446,3.509c.045.668.023,2.909.007,4.545-.006.705-.013,1.292-.011,1.575a.4.4,0,0,1-.4.4Z" transform="translate(-1.92 -3.601)"/>
      <path id="Caminho_2061" data-name="Caminho 2061" class="cls-1" d="M16.959,21.74a18.459,18.459,0,0,1-2.938-.251.394.394,0,0,1-.32-.456.39.39,0,0,1,.456-.32c1.4.245,4.428.49,5.878-.334a.395.395,0,0,1,.39.686A7.382,7.382,0,0,1,16.959,21.74Z" transform="translate(-2.845 -4.295)"/>
      <path id="Caminho_2062" data-name="Caminho 2062" class="cls-1" d="M9.147,17.832a.4.4,0,0,1-.244-.084,4.469,4.469,0,0,1-1.919-4.141c.024-.584.083-1.127.14-1.652A6.946,6.946,0,0,0,6.682,7.7a.395.395,0,0,1,.706-.353,7.672,7.672,0,0,1,.521,4.689c-.055.512-.113,1.042-.136,1.6A3.718,3.718,0,0,0,9.39,17.127a.4.4,0,0,1,.067.554A.39.39,0,0,1,9.147,17.832Z" transform="translate(-1.354 -1.507)"/>
      <path id="Caminho_2063" data-name="Caminho 2063" class="cls-1" d="M18.446,9.355h-.017c-3.368-.144-4.3-2.56-4.807-3.858l-.055-.142c-.557-1.439-.864-2.231-1.9-2.726a.394.394,0,1,1,.341-.711c1.318.63,1.727,1.689,2.294,3.153l.054.142c.607,1.564,1.474,3.242,4.106,3.354a.395.395,0,0,1-.017.789Z" transform="translate(-2.369 -0.397)"/>
      <path id="Caminho_2064" data-name="Caminho 2064" class="cls-1" d="M31.4,22.758a3.594,3.594,0,0,1-2.51-1.219,2.924,2.924,0,0,1-.823-2.424c.217-1.3.464-2.777.126-3.271a.394.394,0,1,1,.65-.445c.483.705.323,1.923,0,3.846a2.171,2.171,0,0,0,.628,1.762,3.176,3.176,0,0,0,1.1.779,3.259,3.259,0,0,1-.017-2.54c.592-1.741.944-4.731.067-5.815a3.05,3.05,0,0,0-3.067-1.037.395.395,0,0,1-.1-.783,3.862,3.862,0,0,1,3.782,1.324c1.223,1.511.573,5.076.067,6.565-.544,1.6.147,2.308.468,2.537a.395.395,0,0,1-.2.715C31.517,22.755,31.461,22.758,31.4,22.758Z" transform="translate(-5.68 -2.441)"/>
    </g>
  </g>
</svg>
