<svg xmlns="http://www.w3.org/2000/svg" width="44.003" height="42.077" viewBox="0 0 44.003 42.077">
    <defs>
        <style>
            .cls-1{fill:#d6d6d6}
        </style>
    </defs>
    <g id="tooth" transform="translate(0 -8.915)">
        <path id="Caminho_2071" d="M40.636 12.876a11.713 11.713 0 0 0-8.843-3.961c-2.674 0-5.559 1.591-7.666 2.754A12.458 12.458 0 0 1 22 12.709a12.342 12.342 0 0 1-2.118-1.038c-2.1-1.163-4.981-2.756-7.674-2.756a11.714 11.714 0 0 0-8.843 3.961A13.474 13.474 0 0 0 0 21.884c0 4.826 1.733 11.689 4.636 18.36a44.5 44.5 0 0 0 3.975 7.416c1.558 2.242 2.9 3.332 4.089 3.332.529 0 1.5-.224 2.042-1.728.528-1.461 1-3.139 1.508-4.918 1.334-4.709 2.994-10.569 5.667-10.569h.169c1.188 0 2.252 1.018 3.252 3.112a47.828 47.828 0 0 1 2.473 7.5c.482 1.766.937 3.433 1.449 4.868.533 1.495 1.491 1.718 2.016 1.719 1.187 0 2.523-1.107 4.085-3.383a46.052 46.052 0 0 0 3.984-7.49C42.261 33.382 44 26.57 44 21.884a13.473 13.473 0 0 0-3.366-9.008m-9.668 3.464a29.352 29.352 0 0 1-5.306-.8 6.516 6.516 0 0 1-2.475-1.083A8.745 8.745 0 0 1 25 13.241c1.935-1.068 4.586-2.53 6.8-2.53 6.518 0 10.413 5.681 10.413 11.173 0 4.386-1.729 11.094-4.511 17.507a44.911 44.911 0 0 1-3.817 7.189c-1.413 2.059-2.327 2.657-2.6 2.6-.17-.034-.191-.154-.323-.525-.489-1.373-.936-3.009-1.409-4.741a48.979 48.979 0 0 0-2.584-7.8c-1.328-2.782-2.922-4.134-4.873-4.134h-.169c-1.879 0-3.436 1.341-4.76 4.1a51.26 51.26 0 0 0-2.635 7.775c-.495 1.746-.962 3.394-1.469 4.8-.112.31-.147.512-.353.543-.162.025-.854-.029-2.614-2.561a43.349 43.349 0 0 1-3.8-7.108C3.515 33.168 1.8 26.407 1.8 21.884c0-5.492 3.895-11.173 10.413-11.173a12.049 12.049 0 0 1 5.956 2.065c.3.19.719.513 1.125.825.162.125.322.247.471.359a20.345 20.345 0 0 0 1.879 1.27 9.913 9.913 0 0 0 1.151.609 13.083 13.083 0 0 0 5.14 1.043 12.956 12.956 0 0 0 3.045-.326s.273-.072.264-.143-.275-.072-.275-.072z" class="cls-1" data-name="Caminho 2071"/>
    </g>
</svg>
