<svg xmlns="http://www.w3.org/2000/svg" width="22.096" height="20.369" viewBox="0 0 22.096 20.369">
  <defs>
    <style>
      .cls-1 {
        fill: #afafaf;
      }
    </style>
  </defs>
  <g id="Propriedade" transform="translate(-240.952 -589.815)">
    <g id="fence" transform="translate(240.952 569.816)">
      <path id="União_10" data-name="União 10" class="cls-1" d="M-1588.521-7803.448a.432.432,0,0,1-.432-.43.432.432,0,0,1,.432-.432h1.467v-1.9h-1.467a.432.432,0,0,1-.432-.432v-1.9a.431.431,0,0,1,.432-.43h1.467v-7.208h-1.467a.434.434,0,0,1-.432-.432v-1.9a.433.433,0,0,1,.432-.432h1.467v-2.38a.441.441,0,0,1,.128-.307l2.072-2.063a.429.429,0,0,1,.609,0l2.072,2.063a.441.441,0,0,1,.128.307v2.38h1.64v-2.38a.433.433,0,0,1,.128-.307l2.072-2.063a.429.429,0,0,1,.609,0l2.072,2.063a.439.439,0,0,1,.126.307v2.38h1.643v-2.38a.441.441,0,0,1,.128-.307l2.072-2.063a.429.429,0,0,1,.609,0l2.072,2.063a.433.433,0,0,1,.128.307v2.38h1.463a.432.432,0,0,1,.432.432v1.9a.432.432,0,0,1-.432.432h-1.463v7.208h1.463a.43.43,0,0,1,.432.43v1.9a.431.431,0,0,1-.432.432h-1.463v1.9h1.463a.431.431,0,0,1,.432.432.43.43,0,0,1-.432.43Zm15.626-17.691v16.829h3.279v-16.829l-1.64-1.636Zm-2.507,16.829h1.643v-1.9h-1.643Zm-4.141-16.829v16.829h3.279v-7.6a.432.432,0,0,1,.432-.432.432.432,0,0,1,.43.432v2.943h1.643v-7.208h-1.643v.8a.43.43,0,0,1-.43.432.431.431,0,0,1-.432-.432v-5.767l-1.64-1.636Zm-2.5,16.829h1.64v-1.9h-1.64Zm-4.143-16.829v16.829h3.279v-16.829l-1.64-1.636Zm17.438,14.066h1.031v-1.035h-1.031Zm-6.651,0h1.643v-1.035h-1.643Zm-6.645,0h1.64v-1.035h-1.64Zm-6.042,0h1.035v-1.035h-1.035Zm6.042-1.9h1.64v-7.208h-1.64Zm13.3-8.072h1.031v-1.035h-1.031Zm-6.633,0h1.589v-1.035h-1.589Zm-6.627,0h1.587v-1.035h-1.587Zm-6.077,0h1.035v-1.035h-1.035Zm16.529,9.757a.433.433,0,0,1-.128-.3.43.43,0,0,1,.128-.3.426.426,0,0,1,.3-.127.423.423,0,0,1,.3.127.422.422,0,0,1,.128.3.425.425,0,0,1-.128.3.429.429,0,0,1-.3.127A.432.432,0,0,1-1571.56-7807.285Zm-6.651,0a.431.431,0,0,1-.126-.3.429.429,0,0,1,.126-.3.431.431,0,0,1,.306-.127.427.427,0,0,1,.3.127.431.431,0,0,1,.128.3.433.433,0,0,1-.128.3.433.433,0,0,1-.3.127A.437.437,0,0,1-1578.211-7807.285Zm-6.648,0a.431.431,0,0,1-.126-.3.429.429,0,0,1,.126-.3.426.426,0,0,1,.3-.127.431.431,0,0,1,.306.127.429.429,0,0,1,.126.3.431.431,0,0,1-.126.3.437.437,0,0,1-.306.127A.432.432,0,0,1-1584.859-7807.285Zm-.124-1.946v-3.532a.433.433,0,0,1,.432-.432.433.433,0,0,1,.432.432v3.532a.432.432,0,0,1-.432.432A.432.432,0,0,1-1584.983-7809.23Zm8.844-3.966a.431.431,0,0,1-.126-.3.436.436,0,0,1,.126-.307.434.434,0,0,1,.3-.125.432.432,0,0,1,.306.125.436.436,0,0,1,.126.307.431.431,0,0,1-.126.3.434.434,0,0,1-.306.127A.436.436,0,0,1-1576.139-7813.2Zm4.579-4.057a.433.433,0,0,1-.128-.3.438.438,0,0,1,.128-.307.43.43,0,0,1,.3-.125.427.427,0,0,1,.3.125.429.429,0,0,1,.128.307.425.425,0,0,1-.128.3.429.429,0,0,1-.3.127A.432.432,0,0,1-1571.56-7817.253Zm-6.651,0a.431.431,0,0,1-.126-.3.436.436,0,0,1,.126-.307.435.435,0,0,1,.306-.125.431.431,0,0,1,.3.125.438.438,0,0,1,.128.307.433.433,0,0,1-.128.3.433.433,0,0,1-.3.127A.437.437,0,0,1-1578.211-7817.253Zm-6.648,0a.431.431,0,0,1-.126-.3.436.436,0,0,1,.126-.307.43.43,0,0,1,.3-.125.435.435,0,0,1,.306.125.436.436,0,0,1,.126.307.431.431,0,0,1-.126.3.437.437,0,0,1-.306.127A.432.432,0,0,1-1584.859-7817.253Z" transform="translate(1588.952 7843.815)"/>
    </g>
  </g>
</svg>
