<svg xmlns="http://www.w3.org/2000/svg" xmlns:xlink="http://www.w3.org/1999/xlink" width="22.282" height="22.282" viewBox="0 0 22.282 22.282">
  <defs>
    <style>
      .cls-1 {
        fill: none;
      }

      .cls-2 {
        clip-path: url(#clip-path);
      }

      .cls-3 {
        fill: #fff;
      }
    </style>
    <clipPath id="clip-path">
      <rect class="cls-1" width="22.282" height="22.282"/>
    </clipPath>
  </defs>
  <g id="filtrar_BTN" class="cls-2">
    <path id="filter02" class="cls-3" d="M30.8,9H9.484A.484.484,0,0,0,9,9.484V13.36a.484.484,0,0,0,.484.484H11.17L17.719,23.2v7.6a.485.485,0,0,0,.3.448.478.478,0,0,0,.186.037.485.485,0,0,0,.342-.142l3.875-3.875a.482.482,0,0,0,.142-.342V23.2l6.549-9.356H30.8a.484.484,0,0,0,.484-.484V9.484A.484.484,0,0,0,30.8,9Zm-.484,3.875H23.047a.484.484,0,0,0,0,.969h4.882L21.682,22.77a.483.483,0,0,0-.088.278v3.675l-2.906,2.906V23.047a.483.483,0,0,0-.088-.278l-6.248-8.926h4.882a.484.484,0,1,0,0-.969H9.969V9.969H30.313Z" transform="translate(-9 -9)"/>
  </g>
</svg>
