<svg xmlns="http://www.w3.org/2000/svg" width="66.183" height="61.012" viewBox="0 0 66.183 61.012">
  <defs>
    <style>
      .cls-1 {
        fill: #d6d6d6;
      }
    </style>
  </defs>
  <g id="fence" transform="translate(0.001 -19.997)">
    <path id="União_10" data-name="União 10" class="cls-1" d="M1.294,61.012a1.292,1.292,0,1,1,0-2.584H5.687V52.742H1.294A1.293,1.293,0,0,1,0,51.448V45.76a1.292,1.292,0,0,1,1.294-1.287H5.687V22.883H1.294A1.3,1.3,0,0,1,0,21.589V15.9a1.3,1.3,0,0,1,1.294-1.292H5.687V7.479a1.319,1.319,0,0,1,.382-.918l6.2-6.18a1.281,1.281,0,0,1,1.823,0l6.2,6.18a1.319,1.319,0,0,1,.382.918v7.13H25.6V7.479a1.3,1.3,0,0,1,.382-.918l6.2-6.18a1.282,1.282,0,0,1,1.824,0l6.2,6.18a1.314,1.314,0,0,1,.376.918v7.13h4.923V7.479a1.32,1.32,0,0,1,.382-.918L52.1.381a1.281,1.281,0,0,1,1.823,0l6.2,6.18a1.3,1.3,0,0,1,.382.918v7.13h4.381A1.292,1.292,0,0,1,66.182,15.9v5.689a1.3,1.3,0,0,1-1.294,1.294H60.507V44.472h4.381a1.288,1.288,0,0,1,1.294,1.287v5.689a1.29,1.29,0,0,1-1.294,1.294H60.507v5.686h4.381a1.292,1.292,0,1,1,0,2.584ZM48.1,8.021V58.429h9.821V8.021l-4.911-4.9ZM40.587,58.429h4.923V52.742H40.587ZM28.183,8.021V58.429h9.822V35.656a1.291,1.291,0,1,1,2.582,0v8.816h4.923V22.883H40.587v2.409a1.291,1.291,0,1,1-2.582,0V8.021l-4.911-4.9Zm-7.5,50.408H25.6V52.742H20.685ZM8.275,8.021V58.429H18.1V8.021l-4.911-4.9ZM60.507,50.154h3.088v-3.1H60.507Zm-19.92,0h4.923v-3.1H40.587Zm-19.9,0H25.6v-3.1H20.685Zm-18.1,0h3.1v-3.1h-3.1Zm18.1-5.682H25.6V22.883H20.685ZM60.507,20.3h3.088v-3.1H60.507Zm-19.867,0H45.4v-3.1H40.64Zm-19.849,0h4.752v-3.1H20.79Zm-18.2,0h3.1v-3.1h-3.1ZM52.1,49.52a1.279,1.279,0,0,1,0-1.824A1.29,1.29,0,1,1,53.92,49.52a1.281,1.281,0,0,1-1.823,0Zm-19.92,0a1.3,1.3,0,0,1,.918-2.207,1.274,1.274,0,0,1,.912.383,1.293,1.293,0,0,1-.912,2.205A1.314,1.314,0,0,1,32.176,49.52Zm-19.914,0a1.293,1.293,0,0,1,0-1.824,1.272,1.272,0,0,1,.912-.383,1.295,1.295,0,0,1,.917,2.207,1.312,1.312,0,0,1-.917.381A1.3,1.3,0,0,1,12.263,49.52Zm-.371-5.829V33.111a1.294,1.294,0,0,1,2.588,0V43.691a1.294,1.294,0,0,1-2.588,0Zm26.49-11.88a1.289,1.289,0,1,1,.912.381A1.31,1.31,0,0,1,38.381,31.81ZM52.1,19.661a1.292,1.292,0,0,1,.912-2.207,1.294,1.294,0,0,1,0,2.588A1.3,1.3,0,0,1,52.1,19.661Zm-19.92,0a1.294,1.294,0,0,1,1.83-1.831,1.294,1.294,0,1,1-1.83,1.831Zm-19.914,0a1.292,1.292,0,0,1,.912-2.207,1.285,1.285,0,0,1,1.294,1.294,1.3,1.3,0,0,1-.376.913,1.312,1.312,0,0,1-.917.381A1.3,1.3,0,0,1,12.263,19.661Z" transform="translate(-0.001 19.997)"/>
  </g>
</svg>
