<svg xmlns="http://www.w3.org/2000/svg" width="35.172" height="45.563" viewBox="0 0 35.172 45.563">
  <defs>
    <style>
      .cls-1 {
        fill: #2bc4f3;
      }
    </style>
  </defs>
  <g id="padlock03" transform="translate(-6.5)">
    <path id="Caminho_2215" data-name="Caminho 2215" class="cls-1" d="M33.678,18.385V9.273C33.678,4.16,29.2,0,23.686,0s-9.992,4.16-9.992,9.273v9.112H6.5V45.563H41.672V18.385ZM15.293,9.273c0-4.232,3.765-7.675,8.393-7.675s8.393,3.443,8.393,7.675v9.112H15.293Zm24.78,34.691H8.1v-3.2H40.073ZM8.1,39.168V19.984H40.073V39.168Z"/>
    <path id="Caminho_2216" data-name="Caminho 2216" class="cls-1" d="M27.7,31a3.2,3.2,0,0,0-3.2,3.2v4.8a3.2,3.2,0,1,0,6.395,0V34.2A3.2,3.2,0,0,0,27.7,31Zm1.6,7.994a1.6,1.6,0,1,1-3.2,0V34.2a1.6,1.6,0,1,1,3.2,0Z" transform="translate(-3.612 -6.22)"/>
  </g>
</svg>
