<svg xmlns="http://www.w3.org/2000/svg" width="19.732" height="11.762" viewBox="0 0 19.732 11.762">
    <defs>
        <style>
            .cls-1{fill:#d6d6d6}
        </style>
    </defs>
    <g id="eye_1_" data-name="eye (1)" transform="translate(0 -98.725)">
        <path id="Caminho_2052" d="M9.866 98.725c-3.77 0-7.189 2.063-9.712 5.413a.781.781 0 0 0 0 .932c2.523 3.354 5.942 5.417 9.712 5.417s7.189-2.063 9.712-5.413a.781.781 0 0 0 0-.932c-2.523-3.354-5.942-5.417-9.712-5.417zm.27 10.023a4.15 4.15 0 1 1 3.871-3.871 4.153 4.153 0 0 1-3.87 3.871zm-.125-1.913a2.235 2.235 0 1 1 2.087-2.087 2.231 2.231 0 0 1-2.087 2.086z" class="cls-1" data-name="Caminho 2052"/>
    </g>
</svg>
