<svg id="whatsapp-logo" xmlns="http://www.w3.org/2000/svg" width="16.262" height="16.262" viewBox="0 0 16.262 16.262">
  <defs>
    <style>
      .cls-1 {
        fill: #1f6cbc;
      }
    </style>
  </defs>
  <path id="WhatsApp" class="cls-1" d="M16.262,7.922A8,8,0,0,1,4.42,14.858L0,16.262l1.441-4.25A7.838,7.838,0,0,1,.3,7.922a7.984,7.984,0,0,1,15.967,0ZM8.279,1.262a6.694,6.694,0,0,0-6.712,6.66,6.59,6.59,0,0,0,1.279,3.9L2.007,14.3l2.579-.82a6.719,6.719,0,0,0,10.4-5.558A6.694,6.694,0,0,0,8.279,1.262ZM12.31,9.746c-.049-.081-.18-.13-.375-.227s-1.158-.567-1.337-.632-.31-.1-.441.1-.505.632-.62.761-.228.146-.424.049A5.356,5.356,0,0,1,7.54,8.831,5.854,5.854,0,0,1,6.452,7.487c-.114-.194-.012-.3.086-.4s.2-.227.294-.34a1.3,1.3,0,0,0,.2-.324.354.354,0,0,0-.016-.34c-.049-.1-.441-1.053-.6-1.441s-.326-.324-.44-.324-.245-.016-.375-.016a.722.722,0,0,0-.522.243,2.171,2.171,0,0,0-.685,1.62,3.757,3.757,0,0,0,.8,2.008,8,8,0,0,0,3.343,2.931c1.99.777,1.99.518,2.348.485A1.979,1.979,0,0,0,12.2,10.67,1.619,1.619,0,0,0,12.31,9.746Z"/>
</svg>
