<svg xmlns="http://www.w3.org/2000/svg" width="15.009" height="14.934" viewBox="0 0 15.009 14.934">
  <defs>
    <style>
      .cls-1 {
        fill: #1f6cbc;
      }
    </style>
  </defs>
  <g id="edit" transform="translate(0 -0.261)">
    <path id="Caminho_2101" data-name="Caminho 2101" class="cls-1" d="M13.853,47.089a.374.374,0,0,0-.374.374v3.319A1.123,1.123,0,0,1,12.358,51.9H1.869A1.123,1.123,0,0,1,.748,50.782V41.041a1.123,1.123,0,0,1,1.121-1.121H5.188a.374.374,0,0,0,0-.748H1.869A1.871,1.871,0,0,0,0,41.041v9.741a1.871,1.871,0,0,0,1.869,1.869H12.358a1.871,1.871,0,0,0,1.869-1.869V47.463A.374.374,0,0,0,13.853,47.089Zm0,0" transform="translate(0 -37.457)"/>
    <path id="Caminho_2102" data-name="Caminho 2102" class="cls-1" d="M118.224.753a1.682,1.682,0,0,0-2.379,0l-6.669,6.669a.374.374,0,0,0-.1.165l-.877,3.166a.374.374,0,0,0,.46.46l3.166-.877a.374.374,0,0,0,.165-.1l6.669-6.669a1.684,1.684,0,0,0,0-2.379Zm-8.233,6.912,5.458-5.458,1.76,1.76-5.458,5.458Zm-.352.706,1.406,1.406-1.945.539Zm8.495-5.328-.4.4-1.76-1.76.4-.4a.934.934,0,0,1,1.321,0l.439.439A.936.936,0,0,1,118.134,3.042Zm0,0" transform="translate(-104.146 0)"/>
  </g>
</svg>
