<svg xmlns="http://www.w3.org/2000/svg" width="53.24" height="45.936" viewBox="0 0 53.24 45.936">
  <defs>
    <style>
      .cls-1 {
        fill: #36d397;
      }
    </style>
  </defs>
  <g id="Grupo_55" data-name="Grupo 55" transform="translate(-162.414 -149.718)">
    <g id="padlock03" transform="translate(155.914 149.718)">
      <path id="Caminho_2215" data-name="Caminho 2215" class="cls-1" d="M33.678,18.385V9.273C33.678,4.16,29.2,0,23.686,0s-9.992,4.16-9.992,9.273v9.112H6.5V45.563H41.672V18.385ZM15.293,9.273c0-4.232,3.765-7.675,8.393-7.675s8.393,3.443,8.393,7.675v9.112H15.293Zm24.78,34.691H8.1v-3.2H40.073ZM8.1,39.168V19.984H40.073V39.168Z"/>
      <path id="Caminho_2216" data-name="Caminho 2216" class="cls-1" d="M27.7,31a3.2,3.2,0,0,0-3.2,3.2v4.8a3.2,3.2,0,1,0,6.395,0V34.2A3.2,3.2,0,0,0,27.7,31Zm1.6,7.994a1.6,1.6,0,1,1-3.2,0V34.2a1.6,1.6,0,1,1,3.2,0Z" transform="translate(-3.612 -6.22)"/>
    </g>
    <g id="aprooved_02" transform="translate(201 181)">
      <g id="Grupo_27" data-name="Grupo 27" transform="translate(0 0)">
        <path id="Caminho_2095" data-name="Caminho 2095" class="cls-1" d="M7.327,0a7.327,7.327,0,1,0,7.327,7.327A7.335,7.335,0,0,0,7.327,0Zm0,13.473a6.146,6.146,0,1,1,6.146-6.146A6.153,6.153,0,0,1,7.327,13.473Z" transform="translate(0 0)"/>
        <path id="Caminho_2096" data-name="Caminho 2096" class="cls-1" d="M20.821,18.486l-3.42,3.42-1.251-1.251a.59.59,0,1,0-.835.835l1.669,1.669a.59.59,0,0,0,.835,0l3.838-3.838a.59.59,0,0,0-.835-.835Z" transform="translate(-11.158 -13.495)"/>
      </g>
    </g>
  </g>
</svg>
