<svg xmlns="http://www.w3.org/2000/svg" width="16.32" height="16.322" viewBox="0 0 16.32 16.322">
    <defs>
        <style>
            .cls-1{fill:#fff}
        </style>
    </defs>
    <g id="edit" transform="translate(-6.341 -5.261)">
        <path id="Caminho_2115" d="M123.125.994a2.5 2.5 0 0 0-3.541 0l-9.926 9.926a.556.556 0 0 0-.143.245l-1.305 4.712a.556.556 0 0 0 .685.685l4.712-1.306a.556.556 0 0 0 .245-.143l9.926-9.926a2.506 2.506 0 0 0 0-3.541zM110.87 11.282l8.124-8.124 2.62 2.62-8.124 8.122zm-.523 1.05l2.093 2.093-2.9.8zM122.991 4.4l-.59.59-2.62-2.62.59-.59a1.391 1.391 0 0 1 1.967 0l.653.653a1.393 1.393 0 0 1 0 1.967zm0 0" class="cls-1" data-name="Caminho 2115" transform="translate(-101.849 5)"/>
    </g>
</svg>
