<svg xmlns="http://www.w3.org/2000/svg" width="14.913" height="16.067" viewBox="0 0 14.913 16.067">
  <defs>
    <style>
      .cls-1 {
        fill: #1f6cbc;
      }
    </style>
  </defs>
  <g id="logout" transform="translate(-17.6)">
    <g id="Grupo_38" data-name="Grupo 38" transform="translate(17.6 0)">
      <g id="Grupo_37" data-name="Grupo 37" transform="translate(0 0)">
        <path id="Caminho_2111" data-name="Caminho 2111" class="cls-1" d="M131.036,133.038l.007-.007a.254.254,0,0,0,.026-.036s0-.007.007-.01.016-.026.023-.039a.011.011,0,0,1,0-.007c.007-.013.013-.026.02-.043s0,0,0-.007.01-.03.016-.046,0-.007,0-.007a.23.23,0,0,0,.01-.046.03.03,0,0,1,0-.016c0-.013,0-.026.007-.039a.473.473,0,0,0,0-.111.165.165,0,0,0-.007-.039.03.03,0,0,0,0-.016c0-.016-.007-.03-.01-.046s0-.007,0-.007a.259.259,0,0,0-.016-.046s0,0,0-.007-.013-.03-.02-.043a.011.011,0,0,0,0-.007.241.241,0,0,0-.023-.039s0-.007-.007-.01a.357.357,0,0,0-.026-.036l-.007-.007a.465.465,0,0,0-.039-.043l-3.244-3.24a.564.564,0,1,0-.8.8l2.283,2.283h-9.075a.562.562,0,1,0,0,1.125h9.078l-2.266,2.266a.562.562,0,1,0,.794.8l3.224-3.224A.621.621,0,0,1,131.036,133.038Z" transform="translate(-116.255 -124.648)"/>
        <path id="Caminho_2112" data-name="Caminho 2112" class="cls-1" d="M20.653,1.125h4.2a.562.562,0,1,0,0-1.125h-4.2A3.058,3.058,0,0,0,17.6,3.053v9.96a3.058,3.058,0,0,0,3.053,3.053h4.129a.562.562,0,1,0,0-1.125H20.653a1.932,1.932,0,0,1-1.928-1.928V3.053A1.932,1.932,0,0,1,20.653,1.125Z" transform="translate(-17.6 0)"/>
      </g>
    </g>
  </g>
</svg>
