<svg xmlns="http://www.w3.org/2000/svg" width="165.082" height="102.249" viewBox="0 0 165.082 102.249">
  <defs>
    <style>
      .cls-1 {
        fill: #1f6cbc;
      }

      .cls-2 {
        fill: #afafaf;
      }
    </style>
  </defs>
  <g id="ilustracacao" transform="translate(-82.324 -217.312)">
    <g id="horse-outline" transform="translate(107.743 197.82)">
      <path id="Caminho_2217" data-name="Caminho 2217" class="cls-1" d="M118.479,58.439s-2.272-9.912-3.2-13.837c-.06-.226-.119-.438-.185-.643-.275-.912-.454-1.516,2.394-4.142a1.237,1.237,0,0,0,.391-1.017,1.82,1.82,0,0,0-.6-1.043c-.643-.514-2.134-1.1-7.706-.344-2.78-1.555-19.42-10.016-36.8-.1a5.306,5.306,0,0,0-4.341,1.352c-.051.067-5.525,6.9-22.009,8.219-2.039.505-11.465,3-14.394,6.587a8.865,8.865,0,0,0-5.667-.374c-4.388,1.125-8.356,5.294-11.8,12.4a1.118,1.118,0,0,0-.1.327c-.034.184-3.321,18.459-13.825,24.294A1.238,1.238,0,0,0,.955,92.4c.169.033,16.794,3.665,21.931-15.3.631-5.59,2.455-13.313,4.794-16.1a27.706,27.706,0,0,0,1.586,14.021c.924,2.5,1.886,5.093-4.253,10.351-.109.107-2.623,2.687-2.734,8.535-.244,4.185-1.254,10.613-2.735,11.8a1.251,1.251,0,0,0-.423.649,3.992,3.992,0,0,0,.175,2.514c-1.09,1.109-2.719,3.214-2.2,5.45l1.367,3.552a1.977,1.977,0,0,0,1.622.87,2.206,2.206,0,0,0,.233-.012c1.335-.158,2.424-1.549,3.492-4.434.157-.344,3.818-8.445,4.121-15.256a26.18,26.18,0,0,1,7.931-13.408c1.477-.7,11.655-5.59,15.8-8.351a16.285,16.285,0,0,0,4.922-4.909,14.675,14.675,0,0,0,2.495.245c4.84,0,11.518-1.643,17.563-4.435.083-.043.1-.144.185-.2a10.39,10.39,0,0,0,.933.508c2.5,1.154,5.423.576,9.175-1.828l5.686-1.4a9.024,9.024,0,0,1-3.01,3.789,4.271,4.271,0,0,1-1.991-.251,3.191,3.191,0,0,0-2.879-.264c-1.017.391-2.4,1.469-3.2,4.384a1.224,1.224,0,0,0-.018.588c.206.975,1.339,2.436,6.522,1.4,1.247.138,6.362.5,7.922-2.329.693-.855,6.7-8.474,5.393-13.069a4.3,4.3,0,0,0-2.891-2.921,33.513,33.513,0,0,0-7.6-1.442,21.257,21.257,0,0,0,.927-2.816,9.9,9.9,0,0,1,8.586-2.173c.146,1.69,1.04,4.96,5.456,7.533a33.337,33.337,0,0,0,4.275,4.528,6.025,6.025,0,0,0,1.958,3.958,4.558,4.558,0,0,0,3.925.744,1.158,1.158,0,0,0,.3-.1C117.837,66.052,120.288,63.267,118.479,58.439Zm-3.192,6.114a2.075,2.075,0,0,1-1.692-.3,4.019,4.019,0,0,1-1.073-2.685,1.256,1.256,0,0,0-.481-.949A30.471,30.471,0,0,1,107.63,56a1.225,1.225,0,0,0-.376-.321c-4.8-2.7-4.452-6.148-4.436-6.277a1.232,1.232,0,0,0-.849-1.352,12.294,12.294,0,0,0-12.186,2.789,1.154,1.154,0,0,0-.329.622A24.494,24.494,0,0,1,87.8,56.009a1.234,1.234,0,0,0,1.411,1.735c2.1-.505,6.858.7,8.475,1.206A1.773,1.773,0,0,1,98.98,60.2c.715,2.544-2.649,8-5.055,11.016-.777,1.393-4.227,1.43-5.776,1.235a1.309,1.309,0,0,0-.41.012,10.04,10.04,0,0,1-3.545.29c.538-1.4,1.163-1.791,1.438-1.894a.7.7,0,0,1,.667.047,6.945,6.945,0,0,0,3.892.593,1.318,1.318,0,0,0,.559-.207,11.257,11.257,0,0,0,4.861-7.6,1.235,1.235,0,0,0-1.525-1.325l-7.94,1.961a1.3,1.3,0,0,0-.38.163c-4.012,2.614-5.9,2.259-6.965,1.77a14.442,14.442,0,0,1-4.664-4.106,1.236,1.236,0,0,0-2.009,1.442,19.56,19.56,0,0,0,2.518,2.773c-6.012,2.614-12.816,4.087-16.958,3.71a10.009,10.009,0,0,0,.158-5.852,1.237,1.237,0,1,0-2.387.649c1.312,4.846-2.082,8.311-5.158,10.366-4.224,2.816-15.533,8.2-15.647,8.256a1.487,1.487,0,0,0-.3.194,28.172,28.172,0,0,0-8.865,15.1c-.295,6.478-3.879,14.415-3.949,14.577a11.392,11.392,0,0,1-1.212,2.526l-.858-2.26c-.26-1.139,1.408-2.93,2.257-3.623a1.237,1.237,0,0,0-.009-1.925.96.96,0,0,1-.23-.8c2.538-2.792,3.169-11.438,3.272-13.264.093-4.753,1.954-6.822,1.942-6.822,6.811-5.833,6.2-9.493,4.891-13.023-3.2-8.646-.951-14.961-.927-15.022a1.249,1.249,0,0,0-.138-1.126,1.231,1.231,0,0,0-1-.539h-.07c-6.508,0-8.655,16.112-8.982,19.164C17.289,88.4,9.278,90.247,4.754,90.3c8.8-7.3,11.77-21.97,12.122-23.855,3.03-6.2,6.505-9.971,10.052-10.912a6.178,6.178,0,0,1,4.855.6,1.249,1.249,0,0,0,1.091.17,1.234,1.234,0,0,0,.792-.769c.771-2.194,8.281-4.961,13.166-6.187C64.2,47.973,70.16,40.522,70.3,40.321a3.122,3.122,0,0,1,2.458-.493,1.25,1.25,0,0,0,.9-.138c17.781-10.405,34.861-.024,35.028.082a1.264,1.264,0,0,0,.828.175,32.046,32.046,0,0,1,4.781-.395c-1.955,2.156-2.063,3.444-1.543,5.15.048.158.1.321.137.495.927,3.919,3.2,13.819,3.24,13.976C117.475,62.789,115.792,64.222,115.287,64.553Z" transform="translate(0 0)"/>
    </g>
    <g id="nuvem" transform="translate(20.409 2.079)">
      <g id="cloud" transform="translate(88.597 215.234)">
        <path id="Caminho_2218" data-name="Caminho 2218" class="cls-2" d="M19.136,21.51H4.813A4.812,4.812,0,0,1,4.7,11.887a7.518,7.518,0,0,1,13.85-1.466,5.253,5.253,0,0,1,.583-.034,5.562,5.562,0,1,1,0,11.124ZM4.813,12.633a4.064,4.064,0,1,0,0,8.129H19.136a4.814,4.814,0,1,0,0-9.629,4.9,4.9,0,0,0-.74.062.375.375,0,0,1-.39-.2A6.772,6.772,0,0,0,5.349,12.358a.388.388,0,0,1-.372.284Z" transform="translate(0 -6.453)"/>
        <path id="Caminho_2219" data-name="Caminho 2219" class="cls-2" d="M24.165,22.842a.374.374,0,1,1,0-.747,4.814,4.814,0,1,0-3.629-7.979.373.373,0,1,1-.563-.491,5.562,5.562,0,1,1,4.192,9.217Z" transform="translate(-5.029 -7.785)"/>
      </g>
      <g id="cloud-2" data-name="cloud" transform="translate(61.915 227.779)">
        <path id="Caminho_2218-2" data-name="Caminho 2218" class="cls-2" d="M23.873,25.238H6a6,6,0,0,1-.138-12.005A9.379,9.379,0,0,1,23.145,11.4a6.553,6.553,0,0,1,.728-.043,6.939,6.939,0,1,1,0,13.878ZM6,14.164A5.071,5.071,0,1,0,6,24.3H23.873a6.006,6.006,0,1,0,0-12.013,6.114,6.114,0,0,0-.924.077.467.467,0,0,1-.487-.254,8.448,8.448,0,0,0-15.79,1.706.484.484,0,0,1-.464.354Z" transform="translate(0 -6.453)"/>
        <path id="Caminho_2219-2" data-name="Caminho 2219" class="cls-2" d="M25.225,25.6a.466.466,0,1,1,0-.932A6.006,6.006,0,1,0,20.7,14.709.466.466,0,0,1,20,14.1a6.939,6.939,0,1,1,5.23,11.5Z" transform="translate(-1.352 -6.811)"/>
      </g>
    </g>
    <path id="cerca-fence" class="cls-2" d="M44.716,18.3a2.1,2.1,0,0,0,2.1-2.1V12.59a2.1,2.1,0,0,0-2.1-2.1H41.872V8.707a.686.686,0,1,0-1.371,0V35.242a1.421,1.421,0,0,1-1.261,1.51H35.067a1.4,1.4,0,0,1-1.264-1.51V5.54a3.286,3.286,0,0,1,2.557-3.475,3.324,3.324,0,0,1,3.777,1.724A4.066,4.066,0,0,1,40.5,5.54a.686.686,0,0,0,1.371,0,5.432,5.432,0,0,0-.494-2.34,4.727,4.727,0,0,0-8.945,2.34v4.954H28.125V5.437a4.726,4.726,0,1,0-9.442,0v5.058h-4.3V8.816a.686.686,0,1,0-1.371,0V35.242a1.422,1.422,0,0,1-1.264,1.51H7.572a1.405,1.405,0,0,1-1.264-1.51V5.54a3.31,3.31,0,0,1,3.35-3.564,3.31,3.31,0,0,1,3.35,3.564.686.686,0,0,0,1.371,0A4.672,4.672,0,0,0,9.658.605,4.672,4.672,0,0,0,4.937,5.54v4.954H2.093A2.1,2.1,0,0,0,0,12.59V16.2a2.1,2.1,0,0,0,2.093,2.1H4.937v4.538H2.093A2.1,2.1,0,0,0,0,24.932v3.615A2.1,2.1,0,0,0,2.093,30.64H4.937v4.6a2.769,2.769,0,0,0,2.635,2.881h4.172a2.769,2.769,0,0,0,2.635-2.881v-4.6h4.3v4.5a2.769,2.769,0,0,0,2.634,2.881h4.173a2.769,2.769,0,0,0,2.634-2.881v-4.5h4.307v4.6a2.769,2.769,0,0,0,2.635,2.881H39.24a2.768,2.768,0,0,0,2.632-2.881v-4.6h2.845a2.1,2.1,0,0,0,2.1-2.093V24.932a2.1,2.1,0,0,0-2.1-2.1H41.871V18.3ZM2.093,16.927a.724.724,0,0,1-.722-.725V12.59a.724.724,0,0,1,.722-.725H4.937v5.062Zm0,12.342a.722.722,0,0,1-.722-.722V24.932a.724.724,0,0,1,.722-.725H4.937v5.062ZM28.125,18.3h4.307v4.538H28.125Zm4.307-6.432v5.062H28.125V11.866ZM14.379,18.3h4.3v4.538h-4.3Zm4.3-6.432v5.062h-4.3V11.866Zm-4.3,17.4V24.207h4.3v5.062Zm12.375,5.866a1.4,1.4,0,0,1-1.264,1.51H21.318a1.422,1.422,0,0,1-1.264-1.51V5.437a3.356,3.356,0,1,1,6.7,0Zm1.371-5.866V24.207h4.307v5.062Zm16.591-17.4a.725.725,0,0,1,.724.724V16.2a.725.725,0,0,1-.724.725H41.872V11.866Zm0,12.342a.725.725,0,0,1,.724.725v3.615a.724.724,0,0,1-.724.722H41.872V24.207Zm0,0" transform="translate(200.594 281.439)"/>
  </g>
</svg>
