<svg xmlns="http://www.w3.org/2000/svg" width="17.533" height="18.606" viewBox="0 0 17.533 18.606">
  <defs>
    <style>
      .cls-1 {
        fill: #1f6cbc;
      }
    </style>
  </defs>
  <g id="pdf" transform="translate(-14.77)">
    <path id="Caminho_2161" data-name="Caminho 2161" class="cls-1" d="M32.2,5.035,27.461.109A.358.358,0,0,0,27.207,0H20.14a1.435,1.435,0,0,0-1.434,1.433V6.441H15.843A1.074,1.074,0,0,0,14.77,7.513v5.369a1.074,1.074,0,0,0,1.073,1.072h2.863v3.221a1.434,1.434,0,0,0,1.434,1.431H30.869a1.434,1.434,0,0,0,1.434-1.43V5.283a.358.358,0,0,0-.1-.248ZM27.293.965l3.891,4.044H27.293ZM15.843,13.239a.358.358,0,0,1-.357-.357V7.513a.358.358,0,0,1,.357-.357H25.5a.358.358,0,0,1,.357.357v5.369a.358.358,0,0,1-.357.357Zm15.744,3.937a.717.717,0,0,1-.718.714H20.14a.718.718,0,0,1-.718-.715V13.955H25.5a1.074,1.074,0,0,0,1.073-1.072V7.513A1.074,1.074,0,0,0,25.5,6.441H19.422V1.433A.719.719,0,0,1,20.14.716h6.438V5.367a.358.358,0,0,0,.358.358h4.652Z"/>
    <path id="Caminho_2162" data-name="Caminho 2162" class="cls-1" d="M73.938,239.08h-.806a.294.294,0,0,0-.3.3V241.5a.3.3,0,1,0,.593,0v-.536h.451a.964.964,0,0,0,1.09-.948v-.008A.923.923,0,0,0,73.938,239.08Zm.432.952a.418.418,0,0,1-.47.409h-.47v-.825h.459c.3,0,.481.143.481.408Z" transform="translate(-55.955 -230.392)"/>
    <path id="Caminho_2163" data-name="Caminho 2163" class="cls-1" d="M144.762,239.08h-.756a.294.294,0,0,0-.3.3v2.1a.294.294,0,0,0,.3.3h.756a1.351,1.351,0,0,0,1.434-1.349v-.007A1.345,1.345,0,0,0,144.762,239.08Zm.813,1.357a.768.768,0,0,1-.813.805h-.46v-1.627h.459a.775.775,0,0,1,.813.813Z" transform="translate(-124.254 -230.392)"/>
    <path id="Caminho_2164" data-name="Caminho 2164" class="cls-1" d="M228.463,239.08h-1.511a.294.294,0,0,0-.3.3V241.5a.3.3,0,1,0,.593,0v-.771h1.041a.27.27,0,1,0,0-.54h-1.04v-.574h1.214a.27.27,0,0,0,0-.54Z" transform="translate(-204.185 -230.391)"/>
  </g>
</svg>
