<svg xmlns="http://www.w3.org/2000/svg" width="17.001" height="19.965" viewBox="0 0 17.001 19.965">
  <defs>
    <style>
      .cls-1 {
        fill: #1f6cbc;
      }
    </style>
  </defs>
  <path id="term" class="cls-1" d="M16.221,15.447H14.044V.78a.78.78,0,0,0-.78-.78H.78A.78.78,0,0,0,0,.78V16.227a3.742,3.742,0,0,0,3.737,3.738h9.527A3.742,3.742,0,0,0,17,16.227.78.78,0,0,0,16.221,15.447Zm-10.307.78a2.177,2.177,0,1,1-4.355,0V1.56H12.484V15.447H6.694A.78.78,0,0,0,5.914,16.227Zm7.35,2.178H6.772a3.722,3.722,0,0,0,.62-1.4H15.3A2.181,2.181,0,0,1,13.264,18.405ZM11.311,4.64a.78.78,0,0,1-.78.78H3.513a.78.78,0,0,1,0-1.56h7.019A.78.78,0,0,1,11.311,4.64Zm0,3.86a.78.78,0,0,1-.78.78H3.513a.78.78,0,1,1,0-1.56h7.019A.78.78,0,0,1,11.311,8.5Zm0,3.86a.78.78,0,0,1-.78.78H3.513a.78.78,0,1,1,0-1.56h7.019A.78.78,0,0,1,11.311,12.361Zm0,0" transform="translate(0)"/>
</svg>
