<svg xmlns="http://www.w3.org/2000/svg" width="57.688" height="75.086" viewBox="0 0 57.688 75.086">
  <defs>
    <style>
      .cls-1 {
        fill: #d6d6d6;
      }
    </style>
  </defs>
  <g id="farmer" transform="translate(-25.02 -12.069)">
    <ellipse id="Elipse_25" data-name="Elipse 25" class="cls-1" cx="1.708" cy="2.174" rx="1.708" ry="2.174" transform="translate(42.146 37.422)"/>
    <ellipse id="Elipse_26" data-name="Elipse 26" class="cls-1" cx="1.708" cy="2.174" rx="1.708" ry="2.174" transform="translate(62.534 37.422)"/>
    <path id="Caminho_2065" data-name="Caminho 2065" class="cls-1" d="M82.708,33.761H74.729v-.769a20.868,20.868,0,1,0-41.731,0v.769H25.02V37.5h8.337c-.086.914-.133,1.842-.133,2.783,0,9.818,4.783,17.858,11.978,21.444-6.385,2.6-14.855,8.6-14.855,16.26V86.87h3.681V77.989c0-2.307,1.266-4.537,3.12-6.513V83.327H70.579V71.477c1.853,1.976,3.12,4.206,3.12,6.512V86.87H77.38V77.989c0-7.661-8.47-13.665-14.855-16.26C69.72,58.143,74.5,50.1,74.5,40.285c0-.941-.047-1.869-.133-2.783h8.338V33.761ZM53.864,15.525A17.347,17.347,0,0,1,71.049,32.991v.769H36.679v-.769A17.347,17.347,0,0,1,53.864,15.525ZM49.5,56.225a7.446,7.446,0,0,0,3.414-.6,5.815,5.815,0,0,0,.947-.612,5.865,5.865,0,0,0,.947.613,7.457,7.457,0,0,0,3.414.6,38.228,38.228,0,0,0,6.117-.65l.592-.114a15.748,15.748,0,0,1-22.14,0l.593.114A38.227,38.227,0,0,0,49.5,56.225Zm-2.957-3.949c1.085-1.958,2.221-3.587,2.756-3.867a2.088,2.088,0,0,1,.969-.238,2.13,2.13,0,0,1,1.9,1.161l.468,1.032-.432.921a2.14,2.14,0,0,1-.958,1,4.512,4.512,0,0,1-1.743.2A25.436,25.436,0,0,1,46.546,52.276Zm8.547-1.912.467-1.031a2.13,2.13,0,0,1,1.9-1.162,2.089,2.089,0,0,1,.967.237c.546.285,1.672,1.9,2.76,3.867a25.469,25.469,0,0,1-2.96.209,4.535,4.535,0,0,1-1.743-.2,2.151,2.151,0,0,1-.957-1Zm3.4,12.835-4.545,7.442L49.254,63.2a19.745,19.745,0,0,0,9.237,0ZM40.829,79.586V68.363H40.79a31.1,31.1,0,0,1,5.425-3.047L54,77.651l7.529-12.328A31.1,31.1,0,0,1,66.9,68.338V79.586Zm29.994-39.3a21.54,21.54,0,0,1-4.627,13.8l-.533-1.147c-.715-1.538-3.229-6.651-5.567-7.863a5.751,5.751,0,0,0-6.231.61,5.752,5.752,0,0,0-6.233-.609c-2.338,1.211-4.851,6.325-5.566,7.863l-.533,1.148a21.539,21.539,0,0,1-4.628-13.8,25.8,25.8,0,0,1,.156-2.783H70.668A25.961,25.961,0,0,1,70.823,40.285Z" transform="translate(0 0.285)"/>
  </g>
</svg>
