<svg xmlns="http://www.w3.org/2000/svg" width="22.8" height="22.767" viewBox="0 0 22.8 22.767">
  <defs>
    <style>
      .cls-1 {
        fill: #afafaf;
      }
    </style>
  </defs>
  <g id="Perfil" transform="translate(-312 -588.233)">
    <g id="User" transform="translate(297.997 574.223)">
      <path id="Caminho_2069" data-name="Caminho 2069" class="cls-1" d="M42.514,30.011A6.424,6.424,0,0,1,36.1,23.594V20.427a6.417,6.417,0,1,1,12.834,0v3.167A6.424,6.424,0,0,1,42.514,30.011Zm0-15.09a5.512,5.512,0,0,0-5.506,5.506v3.167a5.506,5.506,0,0,0,11.012,0V20.427A5.513,5.513,0,0,0,42.514,14.921Z" transform="translate(-17.064)"/>
      <path id="Caminho_2070" data-name="Caminho 2070" class="cls-1" d="M34.113,86.568H16.694A2.694,2.694,0,0,1,14,83.877V81.888c0-.878.445-2.055,2.564-2.672l2.605-.721a.455.455,0,1,1,.243.878l-2.6.719c-1.9.554-1.9,1.489-1.9,1.8v1.988a1.782,1.782,0,0,0,1.78,1.78H34.113a1.782,1.782,0,0,0,1.78-1.78V81.889c0-.829-.641-1.434-1.906-1.8l-2.48-.693a.455.455,0,1,1,.245-.877l2.483.694c2.123.611,2.568,1.791,2.568,2.674v1.988A2.693,2.693,0,0,1,34.113,86.568Z" transform="translate(0 -49.791)"/>
    </g>
  </g>
</svg>
