<svg xmlns="http://www.w3.org/2000/svg" width="23.308" height="29.813" viewBox="0 0 23.308 29.813">
    <defs>
        <style>
            .cls-1{fill:#fff}
        </style>
    </defs>
    <g id="user_1_" data-name="user (1)" transform="translate(-52.75)">
        <g id="Grupo_39" data-name="Grupo 39" transform="translate(52.75)">
            <path id="Caminho_2113" d="M76.058 29.055v-4.181A11.678 11.678 0 0 0 68 13.787a7.362 7.362 0 1 0-7.19 0 11.67 11.67 0 0 0-8.06 11.087v4.181a.758.758 0 0 0 .758.758h21.8a.759.759 0 0 0 .75-.758zM58.546 7.362a5.852 5.852 0 1 1 5.854 5.852 5.86 5.86 0 0 1-5.854-5.852zm16 20.934h-20.3v-3.428a10.149 10.149 0 1 1 20.3 0z" class="cls-1" data-name="Caminho 2113" transform="translate(-52.75)"/>
        </g>
    </g>
</svg>
