<svg id="aprooved_02" xmlns="http://www.w3.org/2000/svg" width="55.702" height="55.702" viewBox="0 0 55.702 55.702">
  <defs>
    <style>
      .cls-1 {
        fill: #36d397;
      }
    </style>
  </defs>
  <g id="Grupo_27" data-name="Grupo 27">
    <path id="Caminho_2095" data-name="Caminho 2095" class="cls-1" d="M27.851,0A27.851,27.851,0,1,0,55.7,27.851,27.883,27.883,0,0,0,27.851,0Zm0,51.213A23.363,23.363,0,1,1,51.213,27.851,23.388,23.388,0,0,1,27.851,51.213Z"/>
    <path id="Caminho_2096" data-name="Caminho 2096" class="cls-1" d="M36.729,18.97l-13,13-4.757-4.757A2.244,2.244,0,0,0,15.8,30.387l6.344,6.344a2.242,2.242,0,0,0,3.173,0L39.9,22.144a2.244,2.244,0,0,0-3.174-3.174Z"/>
  </g>
</svg>
