<svg xmlns="http://www.w3.org/2000/svg" width="17.505" height="22.784" viewBox="0 0 17.505 22.784">
  <defs>
    <style>
      .cls-1 {
        fill: #afafaf;
      }
    </style>
  </defs>
  <g id="Proprietario" transform="translate(-171.192 -588.157)">
    <g id="farmer" transform="translate(146.172 576.088)">
      <ellipse id="Elipse_25" data-name="Elipse 25" class="cls-1" cx="0.518" cy="0.66" rx="0.518" ry="0.66" transform="translate(30.217 19.762)"/>
      <ellipse id="Elipse_26" data-name="Elipse 26" class="cls-1" cx="0.518" cy="0.66" rx="0.518" ry="0.66" transform="translate(36.403 19.762)"/>
      <path id="Caminho_2065" data-name="Caminho 2065" class="cls-1" d="M42.525,18.453H40.1v-.233a6.332,6.332,0,1,0-12.663,0v.233H25.02v1.135h2.53c-.026.277-.04.559-.04.845a7.058,7.058,0,0,0,3.635,6.507c-1.937.788-4.507,2.609-4.507,4.934v2.695h1.117V31.873A3,3,0,0,1,28.7,29.9v3.6H38.844V29.9a3,3,0,0,1,.947,1.976v2.695h1.117V31.873c0-2.325-2.57-4.146-4.508-4.934a7.058,7.058,0,0,0,3.635-6.507c0-.286-.014-.567-.04-.845h2.53V18.453Zm-8.752-5.533a5.264,5.264,0,0,1,5.214,5.3v.233H28.558v-.233A5.264,5.264,0,0,1,33.772,12.919Zm-1.323,12.35a2.259,2.259,0,0,0,1.036-.184,1.764,1.764,0,0,0,.287-.186,1.78,1.78,0,0,0,.287.186,2.263,2.263,0,0,0,1.036.183,11.6,11.6,0,0,0,1.856-.2l.18-.035a4.779,4.779,0,0,1-6.718,0l.18.035A11.6,11.6,0,0,0,32.449,25.269Zm-.9-1.2a4.064,4.064,0,0,1,.836-1.174.634.634,0,0,1,.294-.072.646.646,0,0,1,.576.352l.142.313-.131.279a.649.649,0,0,1-.291.3,1.369,1.369,0,0,1-.529.06A7.718,7.718,0,0,1,31.552,24.071Zm2.593-.58.142-.313a.646.646,0,0,1,.576-.353.634.634,0,0,1,.294.072,3.977,3.977,0,0,1,.837,1.173,7.728,7.728,0,0,1-.9.063,1.376,1.376,0,0,1-.529-.06.653.653,0,0,1-.29-.3Zm1.031,3.895L33.8,29.643l-1.424-2.257a5.992,5.992,0,0,0,2.8,0Zm-5.359,4.972V28.952h-.012a9.436,9.436,0,0,1,1.646-.925l2.361,3.743L36.1,28.03a9.436,9.436,0,0,1,1.631.915v3.413Zm9.1-11.925a6.536,6.536,0,0,1-1.4,4.188l-.162-.348a6.273,6.273,0,0,0-1.689-2.386,1.745,1.745,0,0,0-1.891.185,1.745,1.745,0,0,0-1.891-.185,6.271,6.271,0,0,0-1.689,2.386l-.162.348a6.536,6.536,0,0,1-1.4-4.188,7.83,7.83,0,0,1,.047-.845h10.2A7.878,7.878,0,0,1,38.918,20.432Z" transform="translate(0 0.285)"/>
    </g>
  </g>
</svg>
