<svg xmlns="http://www.w3.org/2000/svg" width="21.838" height="15.527" viewBox="0 0 21.838 15.527">
  <defs>
    <style>
      .cls-1 {
        fill: #1f6cbc;
      }
    </style>
  </defs>
  <g id="mail" transform="translate(-0.001 -4.482)">
    <path id="União_5" data-name="União 5" class="cls-1" d="M1.761,15.527A1.763,1.763,0,0,1,0,13.766V1.76A1.763,1.763,0,0,1,1.761,0H20.079a1.762,1.762,0,0,1,1.76,1.76V13.766a1.762,1.762,0,0,1-1.76,1.761ZM.7,1.76V13.766a1.058,1.058,0,0,0,1.057,1.056H20.079a1.057,1.057,0,0,0,1.057-1.056V1.76a1.049,1.049,0,0,0-.08-.4L12.213,9.066a2.026,2.026,0,0,1-2.586,0L.783,1.359A1.045,1.045,0,0,0,.7,1.76Zm9.386,6.775a1.32,1.32,0,0,0,1.661,0l8.834-7.7A1.053,1.053,0,0,0,20.079.7H1.761a1.052,1.052,0,0,0-.507.13Z" transform="translate(0 4.482)"/>
  </g>
</svg>
